<svg xmlns="http://www.w3.org/2000/svg" viewBox="0 0 1140.25 787.83"><defs><style>.cls-1{fill:#f04923;}.cls-2{fill:#fff;}.cls-3{fill:#313131;stroke:#313131;stroke-miterlimit:10;stroke-width:2px;}</style></defs><g id="Layer_1" data-name="Layer 1"><rect class="cls-1" width="1140.25" height="787.83"/></g><g id="Layer_2" data-name="Layer 2"><path class="cls-2" d="M385.21,409.89A116.74,116.74,0,1,0,502,526.63,116.73,116.73,0,0,0,385.21,409.89Zm0,195.46a78.73,78.73,0,1,1,78.72-78.72A78.73,78.73,0,0,1,385.21,605.35Z" transform="translate(-31.07 -31.01)"/><path class="cls-2" d="M772.43,409.89A116.74,116.74,0,1,0,889.16,526.63,116.74,116.74,0,0,0,772.43,409.89Zm0,195.46a78.73,78.73,0,1,1,78.72-78.72A78.72,78.72,0,0,1,772.43,605.35Z" transform="translate(-31.07 -31.01)"/></g><g id="Layer_10" data-name="Layer 10"><path class="cls-3" d="M827.76,509.72s-76.41-27-90.08-35.41S707.62,443,707.62,443s-1.25-5,0-5.22,9.07-12.48-3.79-18.26c0,0-3.55,1.68-5.22-3.92s-5.78-10.25-6.34-20.31l3-.75s2-11-3.17-13c0,0-8-3.73-10.43-11.56s-4.1-15.09-3.54-18.63,2-9.69-3.73-14-12.49-16.59-13.23-22,2.61-7.08,2.61-10.25.37-8-3.73-8.58-7.46-10.43-10.81-21.8-16.59-52.56-17.33-59.45a45.08,45.08,0,0,0-2.61-11.37s-28.89-10.81-72.5,17.52c0,0-11.93,9.31-15.66,14.53,0,0-43.05-24.78-43.23-61.5,0,0,3.35-34.11-4.29-39.7s-20.32-15-83.68-3.6c0,0-68.59,19.88-113.32,97.91,0,0-56.16,28.33-61.62,34.79s-11.93,29.32,0,46.22,63.61,85,99.4,105.36c0,0,72.93,37.27,87.47,48.83s28.32,21.24,59.26,54.42l26.28,34.85s29.07,37.27,30.38,38.39,14.72,27.77,82.19,44c-.75,0,40.07,9.31,104.55,6.89l40.82.33a46.42,46.42,0,0,0,19-3.94c23.79-10.44,84.26-40,91.28-72.8C884.42,525.38,827.76,509.72,827.76,509.72ZM558.65,251.58a3.68,3.68,0,0,1,1.58-2.45l27.49-19.9c5.12-3.71,24.6-4.66,24.41-2.61-.15,1.71,6.16,24.12,8.27,31.55a2,2,0,0,1-1.78,2.52c-21.6,1.51-17,6.25-28.29,7.87-11.75,1.68-21.06-5.41-27.59-10.25C559,255.54,558.45,253.13,558.65,251.58ZM430,150a106.75,106.75,0,0,1,46.06.57c-.75,39.76,8,57.9,8,57.9s53.18,72.07,84.74,79.27,35-4.22,49.94-5,13.92,15.41,13.92,15.41l-19.08,2.69a13.42,13.42,0,0,0-4.46,1.4c-9.75,5.29-6.45,14.73-3.89,19.52a6.26,6.26,0,0,0,5.32,3.39c11.48.3,30.06-7.37,30.06-7.37L648,341.25c-6.39-.28-15.49,2.63-19.54,4.07A11.23,11.23,0,0,0,624,348.2c-7.39,7.95,2.14,17.52,6.37,17.52,5.32,0,26.1-4.72,26.1-4.72l5.71,21.62a46.64,46.64,0,0,0-12.62,3.19,12.15,12.15,0,0,0-6.91,6.88c-3.94,10.69,6,15,7.91,15.65,2.24.74,19.57-5.35,19.57-5.35s7.46,22.62,7.46,23.36-7,1.74-14.17,7.95,1,17.15,4.23,18.39,19.38-3,19.38-3l10.93,19.13c-25.48,6.84-15.9,22.62-15.9,22.62,9.69,6.71,16.9,2.73,23.61-3.48s11.18-1.49,16.65,2.24,70.82,31.31,82.25,34.54-13.17,7.2-13.17,7.2-27.34.5-37-5.22-31.31-6.71-40.75-6-32.06,11.93-52.43,5-18.89-14.91-18.89-14.91A95.52,95.52,0,0,0,646,487.23c.5-13.66-17.4-41-31.31-66.1s-18.14-46.22-33.3-82.25c-13.19-31.35-42.37-31.66-49.73-31.21a20.57,20.57,0,0,1-4-.14c-55.22-7.51-82.24-48-90.66-64a36.35,36.35,0,0,1-3.35-9c-5.87-25.75-6.32-69.93-6.33-81.26A3.32,3.32,0,0,1,430,150ZM440.11,361c-11.18,18.26-21.62,7.83-21.62,7.83s-71.19-64.49-92.07-88S316,238.37,316,238.37c20.5-48.83,86.1-81.26,86.1-81.26,1.86-.56,2.61,0,2.61,0,.75,30.94,5.22,73.8,7.08,92.81s23.86,61.5,28.33,76.79S440.11,361,440.11,361Zm11.56,36.53c-9.45-6-5.22-10.44-5.22-10.44s15.65-14.16,18.14-34.54-8.95-45.23-8.95-45.23c1-4.72,6.21-2,6.21-2,8.95,12.42,42.74,27.58,70.08,28.08s26.84,10.43,32.55,34.78,57.4,119.78,58.4,122.26-2.24,2.24-2.24,2.24c-5.46-7.45-28.82-19.88-28.82-19.88-30.82-13.67-79,0-79,0C506.33,459.4,461.11,403.49,451.67,397.53Zm398.83,168c-2.64,9.22-28.75,20.39-34.79,22.86a6.82,6.82,0,0,1-2.56.5H660.4c-25.59,0-32-2.74-54.17-16.4-20-12.33-64.78-64.91-73.36-75.08a3.21,3.21,0,0,1-.11-4c9.43-12.33,46.51-1.53,53.09.58,7,2.24,70.58,54.17,80.52,57.41s34.78-5.72,54.17-7.21,41.74,13.91,73.05,12.18c25.34-1.41,36.68-14.05,40.09-18.82a2.38,2.38,0,0,1,3.21-.59C851.2,545.78,853.35,555.53,850.5,565.51Z" transform="translate(-31.07 -31.01)"/></g><g id="Layer_4" data-name="Layer 4"><path class="cls-2" d="M709.61,359.23a4.71,4.71,0,0,1,4.1-6.87c21.95-.44,83.47-7.12,83.84-68.29.41-68.58-72.23-67.15-118.06-66.84a23.18,23.18,0,0,0-21.12,13.37c-2.94,6.57-3.85,14.79,2.74,22.86a16.6,16.6,0,0,0,12.77,6l49.52.33c11.17.08,21.81,5.88,27,15.75,3.23,6.09,4.42,13.71-.22,22.39-5.61,10.47-16.88,16.67-28.77,16.74L436.56,316.3a15.83,15.83,0,0,0-15.24,11.89L369.63,530.33s-.9,20.63,22.42,14.35S655.8,368.4,655.8,368.4s.35-.26,1-.64a16.35,16.35,0,0,1,23.16,6.78l80.56,162.81a10.61,10.61,0,0,0,9.11,5.87c7.95.32,20.54-1.35,22.78-14.7a18.32,18.32,0,0,0-1.89-11.32Zm-99.56-.7S431.08,481,424.8,482.78s-8.08-4.93-8.08-4.93l32.75-126h153C611.85,351.8,610.05,358.53,610.05,358.53Z" transform="translate(-31.07 -31.01)"/><rect class="cls-2" x="384.75" y="224.81" width="136.59" height="41.04" rx="18.16"/></g></svg>