<svg xmlns="http://www.w3.org/2000/svg" viewBox="0 0 1171.74 787.83"><defs><style>.cls-1{fill:#f04923;}.cls-2{fill:#313131;stroke:#313131;stroke-miterlimit:10;stroke-width:2px;}.cls-3{fill:#fff;}</style></defs><g id="Layer_1" data-name="Layer 1"><rect class="cls-1" x="23.3" width="1140.25" height="787.83"/></g><g id="Layer_10" data-name="Layer 10"><path class="cls-2" d="M322,700.6s-11.91.86-14.25.52-5.91-2.46-5.91-2.46-.46-.6-.31-.7a1.62,1.62,0,0,0-1.58-2.25s-.38.44-.94-.22a9.3,9.3,0,0,1-2-2.37l.36-.28s-.37-1.6-1.2-1.57a3.12,3.12,0,0,1-2.09-.95,7.88,7.88,0,0,1-1.57-2.31,1.9,1.9,0,0,0-1.33-1.67,6.73,6.73,0,0,1-3.08-2.19c-.42-.69-.07-1.11-.25-1.54s-.43-1.1-1-.94-1.62-1-2.75-2.31-5.33-6.12-5.84-7a7,7,0,0,0-1-1.38s-4.54.24-8.76,6.64a16.15,16.15,0,0,0-1.26,2.88s-7.28-.81-9.47-5.76c0,0-1.55-4.8-2.91-5.11s-3.63-.84-11.52,4.44c0,0-8.1,6.72-9.54,19.9,0,0-5.92,7.13-6.28,8.33a6.37,6.37,0,0,0,2.72,6.24c2.61,1.58,13.6,7.74,19.63,8.38,0,0,12.05.74,14.7,1.45a61.71,61.71,0,0,1,11.21,3.86l5.6,3.16s6.12,3.33,6.37,3.4,3.62,2.89,13.69,1.1a63,63,0,0,0,14.53-5.22l5.53-2.36a6.94,6.94,0,0,0,2.35-1.66c2.59-2.81,9-10.36,8-15.21C330.59,699.38,322,700.6,322,700.6Zm-51.55-19a.52.52,0,0,1,.06-.42l2.55-4.31c.47-.8,3.05-2.08,3.14-1.79s2.25,2.9,3,3.78a.29.29,0,0,1-.1.44c-2.83,1.48-1.92,1.85-3.36,2.73s-3.16.51-4.33.24C270.74,682.09,270.52,681.79,270.46,681.57Zm-23.38-6.15a15.83,15.83,0,0,1,6.26-2.63c2.24,5.41,4.48,7.35,4.48,7.35s11.43,6.6,16.12,5.72,4.48-2.63,6.46-3.61,2.78,1.26,2.78,1.26L280.76,685a2.22,2.22,0,0,0-.52.45c-1,1.29,0,2.37.63,2.86a.92.92,0,0,0,.91.15,14.63,14.63,0,0,0,3.63-2.77l2.39,2.74a9.07,9.07,0,0,0-2.4,1.7,1.68,1.68,0,0,0-.43.65c-.53,1.51,1.32,2.24,1.89,2a35.09,35.09,0,0,0,3.25-2.17l2,2.58a6.77,6.77,0,0,0-1.51,1.18,1.75,1.75,0,0,0-.53,1.33,1.73,1.73,0,0,0,2,1.65,15.66,15.66,0,0,0,2.33-1.87s2.34,2.61,2.38,2.71a8.71,8.71,0,0,0-1.45,1.91c-.6,1.26,1.15,2.26,1.66,2.24a11.12,11.12,0,0,0,2.44-1.55l2.6,1.94c-3,2.43-.81,4-.81,4,1.7.33,2.44-.63,3-1.87s1.42-.85,2.38-.67,11.41.06,13.15-.18-1.36,1.75-1.36,1.75-3.66,1.68-5.31,1.47-4.62.94-5.85,1.6-3.63,3.5-6.79,3.76-3.43-.91-3.43-.91a14,14,0,0,0-.89-3.4c-.74-1.88-4.76-4.52-8.12-7.09s-5.17-5.18-9.34-9.15a7.32,7.32,0,0,0-8.56-1.29,3.32,3.32,0,0,1-.55.22,17.92,17.92,0,0,1-16-3.31,5.31,5.31,0,0,1-1-1c-2.31-3.14-5-9.08-5.64-10.61A.5.5,0,0,1,247.08,675.42Zm13.8,27.92c-.43,3.12-2.46,2.33-2.46,2.33s-13.41-4.52-17.61-6.47-3.92-5.12-3.92-5.12c-.1-7.81,6.85-16.05,6.85-16.05.22-.19.35-.15.35-.15,1.93,4.13,5,9.66,6.43,12.12s6.84,6.9,8.34,8.7A11.54,11.54,0,0,1,260.88,703.34Zm3.72,4.25c-1.63-.25-1.32-1.1-1.32-1.1a9.14,9.14,0,0,0,.41-5.74c-.86-2.9-3.87-5.58-3.87-5.58-.14-.7.72-.63.72-.63,1.94,1.15,7.4,1.2,11.12-.34s4.24-.17,6.45,2.79,14.81,12.8,15.09,13.07-.17.44-.17.44c-1.18-.69-5.07-1-5.07-1-5,0-10.67,4.65-10.67,4.65C275.63,712.73,266.22,707.84,264.6,707.59Zm63.77-.79c.19,1.4-2.68,4.45-3.35,5.13a1,1,0,0,1-.32.22l-20.64,9c-3.45,1.51-4.49,1.52-8.28,1-3.42-.49-12.57-5-14.33-5.82a.48.48,0,0,1-.26-.54c.55-2.22,6.2-2.94,7.21-3s12.73,3.17,14.26,3,4.36-2.82,6.89-4.17,6.46-.57,10.59-2.65c3.34-1.69,4.13-4.06,4.31-4.91a.34.34,0,0,1,.4-.26C327.3,704.09,328.17,705.28,328.37,706.8Z" transform="translate(-7.78 -31.01)"/><path class="cls-2" d="M551.75,701.19s-11.91.86-14.26.52-5.9-2.46-5.9-2.46-.46-.6-.31-.7a1.62,1.62,0,0,0-1.59-2.25s-.38.44-.93-.22a8.77,8.77,0,0,1-2-2.37l.36-.28s-.38-1.6-1.2-1.57a3.12,3.12,0,0,1-2.09-1,8.17,8.17,0,0,1-1.58-2.31,1.87,1.87,0,0,0-1.32-1.67,6.71,6.71,0,0,1-3.09-2.19c-.42-.68-.06-1.11-.25-1.54s-.42-1.1-1-.94-1.62-1-2.74-2.3-5.34-6.13-5.84-7a7,7,0,0,0-1-1.38s-4.54.24-8.77,6.64a16.93,16.93,0,0,0-1.26,2.88s-7.27-.81-9.46-5.76c0,0-1.55-4.8-2.92-5.11s-3.63-.83-11.51,4.44c0,0-8.1,6.73-9.55,19.9,0,0-5.91,7.14-6.27,8.33a6.35,6.35,0,0,0,2.72,6.24c2.61,1.58,13.6,7.74,19.63,8.38,0,0,12,.75,14.69,1.45a62,62,0,0,1,11.21,3.86l5.61,3.16s6.12,3.33,6.36,3.4,3.63,2.89,13.7,1.1a63,63,0,0,0,14.53-5.22l5.53-2.36a6.77,6.77,0,0,0,2.34-1.65c2.6-2.82,9-10.36,8-15.22C560.33,700,551.75,701.19,551.75,701.19Zm-51.56-19a.57.57,0,0,1,.07-.42l2.54-4.31c.48-.8,3.05-2.07,3.15-1.79s2.25,2.9,3,3.78a.28.28,0,0,1-.09.44c-2.83,1.48-1.92,1.85-3.36,2.73s-3.16.51-4.33.24C500.47,682.68,500.26,682.39,500.19,682.16ZM476.82,676a15.77,15.77,0,0,1,6.26-2.63c2.24,5.41,4.48,7.35,4.48,7.35s11.43,6.61,16.12,5.72,4.48-2.63,6.45-3.61,2.79,1.26,2.79,1.26l-2.42,1.49a1.88,1.88,0,0,0-.52.45c-1,1.29,0,2.37.62,2.87a1,1,0,0,0,.92.14,14.63,14.63,0,0,0,3.63-2.77l2.39,2.74a9.13,9.13,0,0,0-2.4,1.7,1.58,1.58,0,0,0-.43.65c-.54,1.51,1.32,2.24,1.89,2a34.67,34.67,0,0,0,3.24-2.17l2,2.58a7.11,7.11,0,0,0-1.52,1.18,1.8,1.8,0,0,0-.53,1.33,1.74,1.74,0,0,0,2,1.65,15.16,15.16,0,0,0,2.33-1.87s2.34,2.61,2.39,2.71a8.71,8.71,0,0,0-1.45,1.91c-.61,1.27,1.15,2.26,1.65,2.24a10.86,10.86,0,0,0,2.45-1.55l2.6,1.94c-3,2.43-.82,4-.82,4,1.71.33,2.45-.63,3-1.86s1.42-.86,2.38-.68,11.41.06,13.15-.18-1.36,1.75-1.36,1.75-3.66,1.68-5.31,1.47-4.62.94-5.86,1.6-3.62,3.5-6.79,3.76-3.43-.9-3.43-.9a13.66,13.66,0,0,0-.88-3.41c-.74-1.88-4.77-4.52-8.12-7.09s-5.18-5.17-9.35-9.15a7.31,7.31,0,0,0-8.55-1.29,3.71,3.71,0,0,1-.55.22,18,18,0,0,1-16-3.31,5.57,5.57,0,0,1-1-1c-2.31-3.13-5-9.08-5.64-10.61A.49.49,0,0,1,476.82,676Zm13.8,27.92c-.43,3.12-2.46,2.33-2.46,2.33s-13.41-4.52-17.62-6.47-3.91-5.12-3.91-5.12c-.1-7.81,6.85-16,6.85-16,.22-.18.35-.15.35-.15,1.92,4.13,5.05,9.66,6.42,12.12s6.85,6.9,8.35,8.7A11.6,11.6,0,0,1,490.62,703.93Zm3.71,4.25c-1.62-.25-1.32-1.1-1.32-1.1a9.18,9.18,0,0,0,.42-5.74c-.86-2.9-3.87-5.58-3.87-5.58-.15-.7.72-.63.72-.63,1.94,1.15,7.4,1.21,11.12-.34s4.24-.17,6.45,2.79,14.81,12.8,15.09,13.07-.17.44-.17.44c-1.18-.69-5.07-1-5.07-1-5,0-10.67,4.65-10.67,4.65C505.36,713.32,496,708.43,494.33,708.18Zm63.78-.79c.18,1.4-2.69,4.45-3.36,5.14a1,1,0,0,1-.31.21l-20.64,9c-3.46,1.51-4.49,1.52-8.28,1-3.43-.49-12.58-5-14.34-5.82a.48.48,0,0,1-.25-.54c.55-2.22,6.19-2.94,7.21-3.05s12.72,3.17,14.26,3,4.36-2.82,6.89-4.17,6.46-.57,10.59-2.65c3.34-1.68,4.13-4.06,4.3-4.9a.35.35,0,0,1,.4-.27C557,704.68,557.9,705.87,558.11,707.39Z" transform="translate(-7.78 -31.01)"/><path class="cls-2" d="M766.77,700.6s-11.92.86-14.26.52-5.9-2.46-5.9-2.46-.47-.6-.31-.7a1.62,1.62,0,0,0-1.59-2.25s-.38.44-.94-.22a9.3,9.3,0,0,1-2-2.37l.36-.28s-.37-1.6-1.19-1.57a3.14,3.14,0,0,1-2.1-.95,8.09,8.09,0,0,1-1.57-2.31,1.87,1.87,0,0,0-1.33-1.67,6.73,6.73,0,0,1-3.08-2.19c-.42-.69-.06-1.11-.25-1.54s-.42-1.1-1-.94-1.62-1-2.74-2.31-5.34-6.12-5.85-7a6.58,6.58,0,0,0-1-1.38s-4.54.24-8.76,6.64a16.93,16.93,0,0,0-1.26,2.88s-7.28-.81-9.46-5.76c0,0-1.56-4.8-2.92-5.11s-3.63-.84-11.52,4.44c0,0-8.09,6.72-9.54,19.9,0,0-5.92,7.13-6.28,8.33a6.37,6.37,0,0,0,2.72,6.24c2.61,1.58,13.6,7.74,19.64,8.38,0,0,12.05.74,14.69,1.45a61.45,61.45,0,0,1,11.21,3.86l5.6,3.16s6.13,3.33,6.37,3.4,3.62,2.89,13.69,1.1a63,63,0,0,0,14.53-5.22l5.54-2.36a6.9,6.9,0,0,0,2.34-1.66c2.6-2.81,9-10.36,8-15.21C775.34,699.38,766.77,700.6,766.77,700.6Zm-51.56-19a.53.53,0,0,1,.07-.42l2.54-4.31c.47-.8,3-2.08,3.14-1.79s2.26,2.9,3,3.78a.29.29,0,0,1-.09.44c-2.83,1.48-1.93,1.85-3.36,2.73s-3.17.51-4.33.24C715.49,682.09,715.27,681.79,715.21,681.57Zm-23.37-6.15a15.76,15.76,0,0,1,6.25-2.63c2.24,5.41,4.49,7.35,4.49,7.35s11.43,6.6,16.11,5.72,4.49-2.63,6.46-3.61,2.79,1.26,2.79,1.26L725.52,685a1.88,1.88,0,0,0-.52.45c-1,1.29,0,2.37.62,2.86a.93.93,0,0,0,.92.15,14.63,14.63,0,0,0,3.63-2.77l2.39,2.74a8.9,8.9,0,0,0-2.4,1.7,1.6,1.6,0,0,0-.44.65c-.53,1.51,1.32,2.24,1.89,2a35.09,35.09,0,0,0,3.25-2.17l2,2.58a6.86,6.86,0,0,0-1.52,1.18,1.74,1.74,0,0,0,1.46,3,15.16,15.16,0,0,0,2.33-1.87s2.34,2.61,2.38,2.71a9.26,9.26,0,0,0-1.44,1.91c-.61,1.26,1.14,2.26,1.65,2.24a11.12,11.12,0,0,0,2.44-1.55l2.61,1.94c-3,2.43-.82,4-.82,4,1.71.33,2.44-.63,3-1.87s1.42-.85,2.38-.67,11.41.06,13.14-.18-1.35,1.75-1.35,1.75-3.67,1.68-5.31,1.47-4.63.94-5.86,1.6-3.63,3.5-6.79,3.76-3.43-.91-3.43-.91a14,14,0,0,0-.89-3.4c-.73-1.88-4.76-4.52-8.12-7.09s-5.17-5.18-9.34-9.15a7.32,7.32,0,0,0-8.56-1.29,3.32,3.32,0,0,1-.55.22,17.92,17.92,0,0,1-16-3.31,6,6,0,0,1-1-1c-2.31-3.14-5-9.08-5.64-10.61A.5.5,0,0,1,691.84,675.42Zm13.8,27.92c-.44,3.12-2.46,2.33-2.46,2.33s-13.42-4.52-17.62-6.47-3.91-5.12-3.91-5.12c-.11-7.81,6.84-16.05,6.84-16.05.22-.19.36-.15.36-.15,1.92,4.13,5,9.66,6.42,12.12s6.84,6.9,8.35,8.7A11.71,11.71,0,0,1,705.64,703.34Zm3.71,4.25c-1.63-.25-1.32-1.1-1.32-1.1a9.18,9.18,0,0,0,.42-5.74c-.87-2.9-3.88-5.58-3.88-5.58-.14-.7.73-.63.73-.63,1.94,1.15,7.4,1.2,11.12-.34s4.24-.17,6.44,2.79,14.81,12.8,15.09,13.07-.17.44-.17.44c-1.18-.69-5.06-1-5.06-1-5,0-10.68,4.65-10.68,4.65C720.38,712.73,711,707.84,709.35,707.59Zm63.77-.79c.19,1.4-2.68,4.45-3.35,5.13a.87.87,0,0,1-.32.22l-20.63,9c-3.46,1.51-4.5,1.52-8.29,1-3.42-.49-12.57-5-14.33-5.82a.47.47,0,0,1-.25-.54c.55-2.22,6.19-2.94,7.21-3s12.72,3.17,14.25,3,4.37-2.82,6.9-4.17,6.46-.57,10.58-2.65c3.34-1.69,4.13-4.06,4.31-4.91a.35.35,0,0,1,.4-.26C772.06,704.09,772.92,705.28,773.12,706.8Z" transform="translate(-7.78 -31.01)"/><path class="cls-2" d="M978.2,700.6s-11.91.86-14.26.52-5.9-2.46-5.9-2.46-.46-.6-.31-.7a1.62,1.62,0,0,0-1.59-2.25s-.38.44-.93-.22a8.93,8.93,0,0,1-2.05-2.37l.35-.28s-.37-1.6-1.19-1.57a3.12,3.12,0,0,1-2.09-.95,8,8,0,0,1-1.58-2.31,1.87,1.87,0,0,0-1.33-1.67,6.73,6.73,0,0,1-3.08-2.19c-.42-.69-.06-1.11-.25-1.54s-.42-1.1-1-.94-1.62-1-2.74-2.31-5.34-6.12-5.84-7a6.81,6.81,0,0,0-1-1.38s-4.54.24-8.76,6.64a16.93,16.93,0,0,0-1.26,2.88s-7.27-.81-9.46-5.76c0,0-1.56-4.8-2.92-5.11s-3.63-.84-11.51,4.44c0,0-8.1,6.72-9.55,19.9,0,0-5.92,7.13-6.27,8.33a6.35,6.35,0,0,0,2.72,6.24c2.6,1.58,13.6,7.74,19.63,8.38,0,0,12,.74,14.69,1.45a61.19,61.19,0,0,1,11.21,3.86l5.61,3.16s6.12,3.33,6.36,3.4,3.63,2.89,13.69,1.1a63,63,0,0,0,14.54-5.22l5.53-2.36a6.9,6.9,0,0,0,2.34-1.66c2.6-2.81,9-10.36,8-15.21C986.77,699.38,978.2,700.6,978.2,700.6Zm-51.56-19a.53.53,0,0,1,.07-.42l2.54-4.31c.48-.8,3-2.08,3.15-1.79s2.25,2.9,3,3.78a.29.29,0,0,1-.09.44c-2.83,1.48-1.92,1.85-3.36,2.73s-3.16.51-4.33.24C926.92,682.09,926.71,681.79,926.64,681.57Zm-23.37-6.15a15.77,15.77,0,0,1,6.26-2.63c2.24,5.41,4.48,7.35,4.48,7.35s11.43,6.6,16.12,5.72,4.48-2.63,6.45-3.61,2.79,1.26,2.79,1.26L937,685a1.88,1.88,0,0,0-.52.45c-1,1.29,0,2.37.62,2.86a.93.93,0,0,0,.92.15,14.63,14.63,0,0,0,3.63-2.77l2.39,2.74a8.9,8.9,0,0,0-2.4,1.7,1.71,1.71,0,0,0-.44.65c-.53,1.51,1.32,2.24,1.9,2a36.09,36.09,0,0,0,3.24-2.17l2.05,2.58a7.11,7.11,0,0,0-1.52,1.18,1.74,1.74,0,0,0,1.46,3,15.16,15.16,0,0,0,2.33-1.87s2.34,2.61,2.39,2.71a8.71,8.71,0,0,0-1.45,1.91c-.61,1.26,1.14,2.26,1.65,2.24a11.22,11.22,0,0,0,2.45-1.55l2.6,1.94c-3,2.43-.82,4-.82,4,1.71.33,2.45-.63,3-1.87s1.42-.85,2.38-.67,11.41.06,13.14-.18-1.35,1.75-1.35,1.75-3.66,1.68-5.31,1.47-4.62.94-5.86,1.6-3.62,3.5-6.79,3.76-3.43-.91-3.43-.91a14.2,14.2,0,0,0-.88-3.4c-.74-1.88-4.77-4.52-8.13-7.09S939,696,934.85,692a7.31,7.31,0,0,0-8.55-1.29,3.71,3.71,0,0,1-.55.22,18,18,0,0,1-16-3.31,5.57,5.57,0,0,1-1-1c-2.31-3.14-5-9.08-5.64-10.61A.49.49,0,0,1,903.27,675.42Zm13.8,27.92c-.44,3.12-2.46,2.33-2.46,2.33s-13.42-4.52-17.62-6.47-3.91-5.12-3.91-5.12c-.11-7.81,6.85-16.05,6.85-16.05.22-.19.35-.15.35-.15,1.92,4.13,5.05,9.66,6.42,12.12s6.85,6.9,8.35,8.7A11.71,11.71,0,0,1,917.07,703.34Zm3.71,4.25c-1.63-.25-1.32-1.1-1.32-1.1a9.18,9.18,0,0,0,.42-5.74c-.87-2.9-3.87-5.58-3.87-5.58-.15-.7.72-.63.72-.63,1.94,1.15,7.4,1.2,11.12-.34s4.24-.17,6.45,2.79,14.8,12.8,15.08,13.07-.17.44-.17.44c-1.17-.69-5.06-1-5.06-1-5,0-10.68,4.65-10.68,4.65C931.81,712.73,922.41,707.84,920.78,707.59Zm63.77-.79c.19,1.4-2.68,4.45-3.35,5.13a.87.87,0,0,1-.32.22l-20.63,9c-3.46,1.51-4.49,1.52-8.29,1-3.42-.49-12.57-5-14.33-5.82a.48.48,0,0,1-.25-.54c.55-2.22,6.19-2.94,7.21-3s12.72,3.17,14.25,3,4.37-2.82,6.9-4.17,6.46-.57,10.59-2.65c3.34-1.69,4.12-4.06,4.3-4.91a.35.35,0,0,1,.4-.26C983.49,704.09,984.35,705.28,984.55,706.8Z" transform="translate(-7.78 -31.01)"/><path class="cls-2" d="M103.45,698.6s-11.91.86-14.26.52-5.9-2.45-5.9-2.45-.47-.6-.31-.71a1.61,1.61,0,0,0-1.59-2.24s-.38.43-.93-.23a9,9,0,0,1-2.06-2.37l.36-.27s-.37-1.61-1.19-1.58a3.1,3.1,0,0,1-2.09-.95A8,8,0,0,1,73.9,686a1.86,1.86,0,0,0-1.33-1.67,6.75,6.75,0,0,1-3.08-2.2c-.42-.68-.06-1.11-.25-1.53s-.42-1.11-1-.94-1.62-1-2.74-2.31-5.34-6.12-5.85-7a6.25,6.25,0,0,0-1-1.38s-4.54.24-8.76,6.63a16.76,16.76,0,0,0-1.26,2.89s-7.28-.82-9.46-5.77c0,0-1.56-4.8-2.92-5.11s-3.63-.83-11.52,4.44c0,0-8.09,6.73-9.54,19.9,0,0-5.92,7.14-6.28,8.33a6.39,6.39,0,0,0,2.73,6.25c2.6,1.58,13.59,7.73,19.63,8.38,0,0,12.05.74,14.69,1.44a62.58,62.58,0,0,1,11.21,3.87l5.6,3.16s6.13,3.32,6.37,3.39,3.62,2.89,13.69,1.11a63.41,63.41,0,0,0,14.53-5.23l5.54-2.36a6.87,6.87,0,0,0,2.34-1.65c2.6-2.81,9-10.36,8-15.21C112,697.38,103.45,698.6,103.45,698.6Zm-51.56-19a.54.54,0,0,1,.07-.43l2.54-4.3c.47-.81,3-2.08,3.14-1.79s2.26,2.89,3,3.77a.3.3,0,0,1-.09.45c-2.83,1.47-1.93,1.84-3.36,2.73a5.6,5.6,0,0,1-4.33.24C52.17,680.09,52,679.8,51.89,679.58Zm-23.37-6.15a15.7,15.7,0,0,1,6.25-2.64c2.24,5.42,4.49,7.35,4.49,7.35s11.43,6.61,16.11,5.72,4.49-2.63,6.46-3.61,2.79,1.26,2.79,1.26L62.2,683a1.88,1.88,0,0,0-.52.45c-1,1.29,0,2.37.62,2.87a.93.93,0,0,0,.92.14,14.43,14.43,0,0,0,3.63-2.76l2.39,2.73a9.13,9.13,0,0,0-2.4,1.7,1.6,1.6,0,0,0-.44.65c-.53,1.51,1.32,2.25,1.89,2a36.91,36.91,0,0,0,3.25-2.18l2,2.59a6.86,6.86,0,0,0-1.52,1.17,1.79,1.79,0,0,0-.53,1.34,1.73,1.73,0,0,0,2,1.64,15.16,15.16,0,0,0,2.33-1.87s2.34,2.62,2.38,2.72a8.93,8.93,0,0,0-1.44,1.91c-.61,1.26,1.14,2.25,1.65,2.23a10.78,10.78,0,0,0,2.44-1.54l2.61,1.94c-3,2.42-.82,4-.82,4,1.71.33,2.44-.63,3-1.86s1.42-.86,2.38-.68,11.41.06,13.14-.18-1.35,1.75-1.35,1.75-3.67,1.68-5.31,1.48-4.63.94-5.86,1.59-3.63,3.5-6.79,3.76-3.43-.9-3.43-.9a14.1,14.1,0,0,0-.89-3.41c-.73-1.88-4.76-4.51-8.12-7.09S64.27,694,60.1,690a7.32,7.32,0,0,0-8.56-1.29A2.63,2.63,0,0,1,51,689a17.92,17.92,0,0,1-16-3.31,5.63,5.63,0,0,1-1-1c-2.31-3.13-5-9.07-5.64-10.6A.5.5,0,0,1,28.52,673.43Zm13.8,27.91c-.44,3.13-2.46,2.33-2.46,2.33s-13.42-4.52-17.62-6.46-3.91-5.13-3.91-5.13c-.11-7.8,6.84-16.05,6.84-16.05.22-.18.36-.15.36-.15,1.92,4.14,5,9.66,6.42,12.12s6.84,6.91,8.35,8.71A11.69,11.69,0,0,1,42.32,701.34ZM46,705.59c-1.63-.25-1.32-1.1-1.32-1.1a9.15,9.15,0,0,0,.42-5.73c-.87-2.9-3.88-5.59-3.88-5.59-.14-.69.73-.63.73-.63,1.94,1.15,7.4,1.21,11.12-.33s4.24-.17,6.44,2.78,14.81,12.8,15.09,13.08-.17.43-.17.43c-1.18-.68-5.06-1-5.06-1-5,0-10.68,4.66-10.68,4.66C57.06,710.73,47.66,705.84,46,705.59Zm63.77-.79c.19,1.4-2.68,4.45-3.35,5.14a1,1,0,0,1-.32.22l-20.63,9c-3.46,1.51-4.5,1.52-8.29,1-3.42-.49-12.57-5-14.33-5.83a.45.45,0,0,1-.25-.53c.55-2.23,6.19-2.95,7.21-3s12.72,3.16,14.25,3,4.37-2.82,6.9-4.16,6.46-.58,10.58-2.66c3.34-1.68,4.13-4.06,4.31-4.9a.35.35,0,0,1,.4-.27C108.74,702.1,109.6,703.29,109.8,704.8Z" transform="translate(-7.78 -31.01)"/><path class="cls-2" d="M1168.61,700.6s-11.91.86-14.25.52-5.91-2.46-5.91-2.46-.46-.6-.31-.7a1.62,1.62,0,0,0-1.58-2.25s-.38.44-.94-.22a9.3,9.3,0,0,1-2-2.37l.36-.28s-.37-1.6-1.2-1.57a3.12,3.12,0,0,1-2.09-.95,7.88,7.88,0,0,1-1.57-2.31,1.9,1.9,0,0,0-1.33-1.67,6.68,6.68,0,0,1-3.08-2.19c-.42-.69-.07-1.11-.26-1.54s-.42-1.1-1-.94-1.63-1-2.75-2.31-5.33-6.12-5.84-7a7,7,0,0,0-1-1.38s-4.54.24-8.77,6.64a16.33,16.33,0,0,0-1.25,2.88s-7.28-.81-9.47-5.76c0,0-1.55-4.8-2.91-5.11s-3.63-.84-11.52,4.44c0,0-8.1,6.72-9.54,19.9,0,0-5.92,7.13-6.28,8.33a6.35,6.35,0,0,0,2.72,6.24c2.61,1.58,13.6,7.74,19.63,8.38,0,0,12,.74,14.7,1.45a61.71,61.71,0,0,1,11.21,3.86l5.6,3.16s6.12,3.33,6.36,3.4,3.63,2.89,13.7,1.1a63,63,0,0,0,14.53-5.22l5.53-2.36a6.8,6.8,0,0,0,2.34-1.66c2.6-2.81,9-10.36,8.05-15.21C1177.19,699.38,1168.61,700.6,1168.61,700.6Zm-51.55-19a.52.52,0,0,1,.06-.42l2.55-4.31c.47-.8,3-2.08,3.14-1.79s2.25,2.9,3,3.78a.28.28,0,0,1-.09.44c-2.83,1.48-1.92,1.85-3.36,2.73s-3.16.51-4.33.24C1117.34,682.09,1117.12,681.79,1117.06,681.57Zm-23.38-6.15a15.83,15.83,0,0,1,6.26-2.63c2.24,5.41,4.48,7.35,4.48,7.35s11.43,6.6,16.12,5.72,4.48-2.63,6.45-3.61,2.79,1.26,2.79,1.26l-2.42,1.49a2,2,0,0,0-.52.45c-1,1.29,0,2.37.63,2.86a.92.92,0,0,0,.91.15,14.63,14.63,0,0,0,3.63-2.77l2.39,2.74a9.07,9.07,0,0,0-2.4,1.7,1.68,1.68,0,0,0-.43.65c-.53,1.51,1.32,2.24,1.89,2a35.09,35.09,0,0,0,3.25-2.17l2,2.58a6.77,6.77,0,0,0-1.51,1.18,1.75,1.75,0,0,0-.53,1.33,1.73,1.73,0,0,0,2,1.65,15.66,15.66,0,0,0,2.33-1.87s2.33,2.61,2.38,2.71a8.71,8.71,0,0,0-1.45,1.91c-.6,1.26,1.15,2.26,1.66,2.24a11.12,11.12,0,0,0,2.44-1.55l2.6,1.94c-3,2.43-.81,4-.81,4,1.7.33,2.44-.63,3-1.87s1.42-.85,2.38-.67,11.41.06,13.15-.18-1.36,1.75-1.36,1.75-3.66,1.68-5.31,1.47-4.62.94-5.85,1.6-3.63,3.5-6.79,3.76-3.43-.91-3.43-.91a14,14,0,0,0-.89-3.4c-.74-1.88-4.76-4.52-8.12-7.09s-5.17-5.18-9.34-9.15a7.32,7.32,0,0,0-8.56-1.29,3.71,3.71,0,0,1-.55.22,18,18,0,0,1-16-3.31,5.57,5.57,0,0,1-1-1c-2.31-3.14-5-9.08-5.64-10.61A.5.5,0,0,1,1093.68,675.42Zm13.8,27.92c-.43,3.12-2.46,2.33-2.46,2.33s-13.41-4.52-17.61-6.47-3.92-5.12-3.92-5.12c-.1-7.81,6.85-16.05,6.85-16.05.22-.19.35-.15.35-.15,1.93,4.13,5,9.66,6.43,12.12s6.84,6.9,8.34,8.7A11.54,11.54,0,0,1,1107.48,703.34Zm3.72,4.25c-1.63-.25-1.32-1.1-1.32-1.1a9.14,9.14,0,0,0,.41-5.74c-.86-2.9-3.87-5.58-3.87-5.58-.14-.7.72-.63.72-.63,1.94,1.15,7.4,1.2,11.12-.34s4.24-.17,6.45,2.79,14.81,12.8,15.09,13.07-.17.44-.17.44c-1.18-.69-5.07-1-5.07-1-5,0-10.67,4.65-10.67,4.65C1122.22,712.73,1112.82,707.84,1111.2,707.59Zm63.77-.79c.19,1.4-2.69,4.45-3.36,5.13a.84.84,0,0,1-.31.22l-20.64,9c-3.46,1.51-4.49,1.52-8.28,1-3.42-.49-12.58-5-14.33-5.82a.48.48,0,0,1-.26-.54c.55-2.22,6.2-2.94,7.21-3s12.73,3.17,14.26,3,4.36-2.82,6.89-4.17,6.46-.57,10.59-2.65c3.34-1.69,4.13-4.06,4.31-4.91a.34.34,0,0,1,.4-.26C1173.9,704.09,1174.77,705.28,1175,706.8Z" transform="translate(-7.78 -31.01)"/></g><g id="Layer_2" data-name="Layer 2"><rect class="cls-3" x="408.05" y="229.81" width="136.59" height="41.04" rx="18.16"/><path class="cls-3" d="M385.21,409.89A116.74,116.74,0,1,0,502,526.63,116.73,116.73,0,0,0,385.21,409.89Zm0,195.46a78.73,78.73,0,1,1,78.72-78.72A78.73,78.73,0,0,1,385.21,605.35Z" transform="translate(-7.78 -31.01)"/><path class="cls-3" d="M772.43,409.89A116.74,116.74,0,1,0,889.16,526.63,116.74,116.74,0,0,0,772.43,409.89Zm0,195.46a78.73,78.73,0,1,1,78.72-78.72A78.72,78.72,0,0,1,772.43,605.35Z" transform="translate(-7.78 -31.01)"/></g><g id="Layer_4" data-name="Layer 4"><path class="cls-3" d="M709.61,359.23a4.71,4.71,0,0,1,4.1-6.87c21.95-.44,83.47-7.12,83.84-68.29.41-68.58-72.23-67.15-118.06-66.84a23.18,23.18,0,0,0-21.12,13.37c-2.94,6.57-3.85,14.79,2.74,22.86a16.6,16.6,0,0,0,12.77,6l49.52.33c11.17.08,21.81,5.88,27,15.75,3.23,6.09,4.42,13.71-.22,22.39-5.61,10.47-16.88,16.67-28.77,16.74L436.56,316.3a15.83,15.83,0,0,0-15.24,11.89L369.63,530.33s-.9,20.63,22.42,14.35S655.8,368.4,655.8,368.4s.35-.26,1-.64a16.35,16.35,0,0,1,23.16,6.78l80.56,162.81a10.61,10.61,0,0,0,9.11,5.87c7.95.32,20.54-1.35,22.78-14.7a18.32,18.32,0,0,0-1.89-11.32Zm-99.56-.7S431.08,481,424.8,482.78s-8.08-4.93-8.08-4.93l32.75-126h153C611.85,351.8,610.05,358.53,610.05,358.53Z" transform="translate(-7.78 -31.01)"/></g></svg>